<?xml version="1.0" encoding="UTF-8"?>
<svg id="Calque_1" xmlns="http://www.w3.org/2000/svg" version="1.1" viewBox="0 0 1247.24 1020.47">
  <!-- Generator: Adobe Illustrator 30.0.0, SVG Export Plug-In . SVG Version: 2.1.1 Build 123)  -->
  <defs>
    <style>
      .st0 {
        stroke-width: .5px;
      }

      .st0, .st1, .st2 {
        stroke-linecap: round;
        stroke-linejoin: round;
      }

      .st0, .st1, .st2, .st3 {
        fill: none;
        stroke: #010101;
      }

      .st2, .st3 {
        stroke-width: .1px;
      }

      .st3 {
        stroke-miterlimit: 10;
      }
    </style>
  </defs>
  <line class="st1" x1="855.67" y1="381.57" x2="859.84" y2="381.57"/>
  <path class="st3" d="M1176.92,443.88l-1.01-3.34-3.11-10.28-7.13-23.56-3.38-11.16-5.33-17.64-3.36-11.08-7.49-24.77-.72-2.38,3.73-7.75,10.93-22.75h0s3.88-8.08,3.88-8.08l2.57-5.34h0s-1.57-4.97-1.57-4.97l-2.93-9.23h0s-8.32-26.25-8.32-26.25h-10.71l11.49,36.25-43.63,3.21-4.19-13.21h0s-8.32-26.25-8.32-26.25h-10.71l12.58,39.67-.28.59-5.1,10.61-9.16,19.04-2.47,5.14-4.07,8.46.5,1.66,3.71,12.25.17.55,3.19,10.53,5.04,16.66,3.37,11.16,11.22,37.06,3.11,10.28,4.22,13.95h0s-5.56,28.59-5.56,28.59h10.39l1.49-7.68,4.17-21.44h0s-2.57-8.5-2.57-8.5l-1.41-4.67,45.03,1.08,3.82,12.62h0s-5.56,28.59-5.56,28.59h10.39l1.49-7.68,4.17-21.44h0s-2.57-8.5-2.57-8.5ZM1104.69,309.17h0s1.85-3.86,1.85-3.86l45.65-3.36-11.18,23.26-3.1,6.44-43.53-1.04,10.31-21.44ZM1094.67,355l-4.32-14.28,45.02,1.08h.01l3.47,11.47,3.41,11.27-47.59-9.54ZM1103.11,382.9l-5.09-16.83,47.59,9.56h0l5.28,17.48-47.79-10.21ZM1117.04,428.93l-10.56-34.88,47.8,10.22,7.79,25.74-45.03-1.08Z"/>
  <path class="st3" d="M47.56,820.89l3.34-1.01,10.28-3.11,23.56-7.13,11.16-3.38,17.64-5.33,11.08-3.36,24.77-7.49,2.38-.72,7.75,3.73,22.75,10.93h.01l8.07,3.88,5.34,2.57h0l4.96-1.57,9.23-2.93h.01l26.24-8.32v-10.71l-36.25,11.49-3.21-43.63,13.21-4.19h.01l26.24-8.32v-10.71l-39.67,12.58-.59-.28-10.61-5.1-19.04-9.16-5.14-2.47-8.46-4.07-1.66.5-12.25,3.71-.55.17-10.53,3.19-16.66,5.04-11.16,3.37-37.06,11.22-10.28,3.11-13.95,4.22h-.01l-28.58-5.56v10.39l7.68,1.49,21.44,4.17h0l8.49-2.57,4.67-1.41-1.08,45.03-12.62,3.82h-.01l-28.58-5.56v10.39l7.68,1.49,21.44,4.17h0l8.49-2.57ZM182.27,748.66h.01l3.85,1.85,3.36,45.65-23.26-11.18-6.44-3.1,1.04-43.53,21.44,10.31ZM136.44,738.64l14.28-4.32-1.08,45.02h0s-11.47,3.48-11.47,3.48l-11.27,3.41,9.54-47.59ZM108.54,747.08l16.83-5.09-9.56,47.59h0s-17.48,5.29-17.48,5.29l10.21-47.79ZM62.51,761.01l34.88-10.56-10.22,47.8-25.74,7.79,1.08-45.03Z"/>
  <path class="st3" d="M239.22,826.56l3.34-1.01,10.28-3.11,23.56-7.13,11.16-3.38,17.64-5.33,11.08-3.36,24.77-7.49,2.38-.72,7.75,3.73,22.75,10.93h.01l8.07,3.88,5.34,2.57h0l4.96-1.57,9.23-2.93h.01l26.24-8.32v-10.71l-36.25,11.49-3.21-43.63,13.21-4.19h.01l26.24-8.32v-10.71l-39.67,12.58-.59-.28-10.61-5.1-19.04-9.16-5.14-2.47-8.46-4.07-1.66.5-12.25,3.71-.55.17-10.53,3.19-16.66,5.04-11.16,3.37-37.06,11.22-10.28,3.11-13.95,4.22h-.01l-28.58-5.56v10.39l7.68,1.49,21.44,4.17h0l8.49-2.57,4.67-1.41-1.08,45.03-12.62,3.82h-.01l-28.58-5.56v10.39l7.68,1.49,21.44,4.17h0l8.49-2.57ZM373.93,754.33h.01l3.85,1.85,3.36,45.65-23.26-11.18-6.44-3.1,1.04-43.53,21.44,10.31ZM328.1,744.31l14.28-4.32-1.08,45.02h0s-11.47,3.48-11.47,3.48l-11.27,3.41,9.54-47.59ZM300.2,752.75l16.83-5.09-9.56,47.59h0s-17.48,5.29-17.48,5.29l10.21-47.79ZM254.17,766.68l34.88-10.56-10.22,47.8-25.74,7.79,1.08-45.03Z"/>
  <path class="st3" d="M431.74,829.95l3.34-1.01,10.28-3.11,23.56-7.13,11.16-3.38,17.64-5.33,11.08-3.36,24.77-7.49,2.38-.72,7.75,3.73,22.75,10.93h.01l8.07,3.88,5.34,2.57h0l4.96-1.57,9.23-2.93h.01l26.24-8.32v-10.71l-36.25,11.49-3.21-43.63,13.21-4.19h.01l26.24-8.32v-10.71l-39.67,12.58-.59-.28-10.61-5.1-19.04-9.16-5.14-2.47-8.46-4.07-1.66.5-12.25,3.71-.55.17-10.53,3.19-16.66,5.04-11.16,3.37-37.06,11.22-10.28,3.11-13.95,4.22h-.01l-28.58-5.56v10.39l7.68,1.49,21.44,4.17h0l8.49-2.57,4.67-1.41-1.08,45.03-12.62,3.82h-.01l-28.58-5.56v10.39l7.68,1.49,21.44,4.17h0l8.49-2.57ZM566.45,757.72h.01l3.85,1.85,3.36,45.65-23.26-11.18-6.44-3.1,1.04-43.53,21.44,10.31ZM520.62,747.7l14.28-4.32-1.08,45.02h0s-11.47,3.48-11.47,3.48l-11.27,3.41,9.54-47.59ZM492.72,756.14l16.83-5.09-9.56,47.59h0s-17.48,5.29-17.48,5.29l10.21-47.79ZM446.69,770.07l34.88-10.56-10.22,47.8-25.74,7.79,1.08-45.03Z"/>
  <path class="st3" d="M622.67,833.45l3.34-1.01,10.28-3.11,23.56-7.13,11.16-3.38,17.64-5.33,11.08-3.36,24.77-7.49,2.38-.72,7.75,3.73,22.75,10.93h.01l8.07,3.88,5.34,2.57h0l4.96-1.57,9.23-2.93h.01l26.24-8.32v-10.71l-36.25,11.49-3.21-43.63,13.21-4.19h.01l26.24-8.32v-10.71l-39.67,12.58-.59-.28-10.61-5.1-19.04-9.16-5.14-2.47-8.46-4.07-1.66.5-12.25,3.71-.55.17-10.53,3.19-16.66,5.04-11.16,3.37-37.06,11.22-10.28,3.11-13.95,4.22h-.01l-28.58-5.56v10.39l7.68,1.49,21.44,4.17h0l8.49-2.57,4.67-1.41-1.08,45.03-12.62,3.82h-.01l-28.58-5.56v10.39l7.68,1.49,21.44,4.17h0l8.49-2.57ZM757.38,761.22h.01l3.85,1.85,3.36,45.65-23.26-11.18-6.44-3.1,1.04-43.53,21.44,10.31ZM711.55,751.2l14.28-4.32-1.08,45.02h0s-11.47,3.48-11.47,3.48l-11.27,3.41,9.54-47.59ZM683.65,759.64l16.83-5.09-9.56,47.59h0s-17.48,5.29-17.48,5.29l10.21-47.79ZM637.62,773.57l34.88-10.56-10.22,47.8-25.74,7.79,1.08-45.03Z"/>
  <path class="st3" d="M812.44,838.1l3.34-1.01,10.28-3.11,23.56-7.13,11.16-3.38,17.64-5.33,11.08-3.36,24.77-7.49,2.38-.72,7.75,3.73,22.75,10.93h.01l8.07,3.88,5.34,2.57h0l4.96-1.57,9.23-2.93h.01l26.24-8.32v-10.71l-36.25,11.49-3.21-43.63,13.21-4.19h.01l26.24-8.32v-10.71l-39.67,12.58-.59-.28-10.61-5.1-19.04-9.16-5.14-2.47-8.46-4.07-1.66.5-12.25,3.71-.55.17-10.53,3.19-16.66,5.04-11.16,3.37-37.06,11.22-10.28,3.11-13.95,4.22h-.01l-28.58-5.56v10.39l7.68,1.49,21.44,4.17h0l8.49-2.57,4.67-1.41-1.08,45.03-12.62,3.82h-.01l-28.58-5.56v10.39l7.68,1.49,21.44,4.17h0l8.49-2.57ZM947.15,765.87h.01l3.85,1.85,3.36,45.65-23.26-11.18-6.44-3.1,1.04-43.53,21.44,10.31ZM901.32,755.85l14.28-4.32-1.08,45.02h0s-11.47,3.48-11.47,3.48l-11.27,3.41,9.54-47.59ZM873.42,764.29l16.83-5.09-9.56,47.59h0s-17.48,5.29-17.48,5.29l10.21-47.79ZM827.39,778.22l34.88-10.56-10.22,47.8-25.74,7.79,1.08-45.03Z"/>
  <path class="st3" d="M1003.38,841.43l3.34-1.01,10.28-3.11,23.56-7.13,11.16-3.38,17.64-5.33,11.08-3.36,24.77-7.49,2.38-.72,7.75,3.73,22.75,10.93h.01l8.07,3.88,5.34,2.57h0l4.96-1.57,9.23-2.93h.01l26.24-8.32v-10.71l-36.25,11.49-3.21-43.63,13.21-4.19h.01l26.24-8.32v-10.71l-39.67,12.58-.59-.28-10.61-5.1-19.04-9.16-5.14-2.47-8.46-4.07-1.66.5-12.25,3.71-.55.17-10.53,3.19-16.66,5.04-11.16,3.37-37.06,11.22-10.28,3.11-13.95,4.22h-.01l-28.58-5.56v10.39l7.68,1.49,21.44,4.17h0l8.49-2.57,4.67-1.41-1.08,45.03-12.62,3.82h-.01l-28.58-5.56v10.39l7.68,1.49,21.44,4.17h0l8.49-2.57ZM1138.09,769.2h.01l3.85,1.85,3.36,45.65-23.26-11.18-6.44-3.1,1.04-43.53,21.44,10.31ZM1092.26,759.18l14.28-4.32-1.08,45.02h0s-11.47,3.48-11.47,3.48l-11.27,3.41,9.54-47.59ZM1064.36,767.62l16.83-5.09-9.56,47.59h0s-17.48,5.29-17.48,5.29l10.21-47.79ZM1018.33,781.55l34.88-10.56-10.22,47.8-25.74,7.79,1.08-45.03Z"/>
  <path class="st3" d="M989.45,680.58l-1.01-3.34-3.11-10.28-7.13-23.56-3.38-11.16-5.33-17.64-3.36-11.08-7.49-24.77-.72-2.38,3.73-7.75,10.93-22.75h0s3.88-8.08,3.88-8.08l2.57-5.34h0s-1.57-4.97-1.57-4.97l-2.93-9.23h0s-8.32-26.25-8.32-26.25h-10.71l11.49,36.25-43.63,3.21-4.19-13.21h0s-8.32-26.25-8.32-26.25h-10.71l12.58,39.67-.28.59-5.1,10.61-9.16,19.04-2.47,5.14-4.07,8.46.5,1.66,3.71,12.25.17.55,3.19,10.53,5.04,16.66,3.37,11.16,11.22,37.06,3.11,10.28,4.22,13.95h0s-5.56,28.59-5.56,28.59h10.39l1.49-7.68,4.17-21.44h0s-2.57-8.5-2.57-8.5l-1.41-4.67,45.03,1.08,3.82,12.62h0s-5.56,28.59-5.56,28.59h10.39l1.49-7.68,4.17-21.44h0s-2.57-8.5-2.57-8.5ZM917.22,545.87h0s1.85-3.86,1.85-3.86l45.65-3.36-11.18,23.26-3.1,6.44-43.53-1.04,10.31-21.44ZM907.2,591.7l-4.32-14.28,45.02,1.08h.01l3.47,11.47,3.41,11.27-47.59-9.54ZM915.64,619.6l-5.09-16.83,47.59,9.56h0l5.28,17.48-47.79-10.21ZM929.57,665.63l-10.56-34.88,47.8,10.22,7.79,25.74-45.03-1.08Z"/>
  <path class="st3" d="M1061.41,680.58l-1.01-3.34-3.11-10.28-7.13-23.56-3.38-11.16-5.33-17.64-3.36-11.08-7.49-24.77-.72-2.38,3.73-7.75,10.93-22.75h0s3.88-8.08,3.88-8.08l2.57-5.34h0s-1.57-4.97-1.57-4.97l-2.93-9.23h0s-8.32-26.25-8.32-26.25h-10.71l11.49,36.25-43.63,3.21-4.19-13.21h0s-8.32-26.25-8.32-26.25h-10.71l12.58,39.67-.28.59-5.1,10.61-9.16,19.04-2.47,5.14-4.07,8.46.5,1.66,3.71,12.25.17.55,3.19,10.53,5.04,16.66,3.37,11.16,11.22,37.06,3.11,10.28,4.22,13.95h0s-5.56,28.59-5.56,28.59h10.39l1.49-7.68,4.17-21.44h0s-2.57-8.5-2.57-8.5l-1.41-4.67,45.03,1.08,3.82,12.62h0s-5.56,28.59-5.56,28.59h10.39l1.49-7.68,4.17-21.44h0s-2.57-8.5-2.57-8.5ZM989.18,545.87h0s1.85-3.86,1.85-3.86l45.65-3.36-11.18,23.26-3.1,6.44-43.53-1.04,10.31-21.44ZM979.16,591.7l-4.32-14.28,45.02,1.08h.01l3.47,11.47,3.41,11.27-47.59-9.54ZM987.6,619.6l-5.09-16.83,47.59,9.56h0l5.28,17.48-47.79-10.21ZM1001.53,665.63l-10.56-34.88,47.8,10.22,7.79,25.74-45.03-1.08Z"/>
  <path class="st3" d="M1133.36,680.58l-1.01-3.34-3.11-10.28-7.13-23.56-3.38-11.16-5.33-17.64-3.36-11.08-7.49-24.77-.72-2.38,3.73-7.75,10.93-22.75h0s3.88-8.08,3.88-8.08l2.57-5.34h0s-1.57-4.97-1.57-4.97l-2.93-9.23h0s-8.32-26.25-8.32-26.25h-10.71l11.49,36.25-43.63,3.21-4.19-13.21h0s-8.32-26.25-8.32-26.25h-10.71l12.58,39.67-.28.59-5.1,10.61-9.16,19.04-2.47,5.14-4.07,8.46.5,1.66,3.71,12.25.17.55,3.19,10.53,5.04,16.66,3.37,11.16,11.22,37.06,3.11,10.28,4.22,13.95h0s-5.56,28.59-5.56,28.59h10.39l1.49-7.68,4.17-21.44h0s-2.57-8.5-2.57-8.5l-1.41-4.67,45.03,1.08,3.82,12.62h0s-5.56,28.59-5.56,28.59h10.39l1.49-7.68,4.17-21.44h0s-2.57-8.5-2.57-8.5ZM1061.13,545.87h0s1.85-3.86,1.85-3.86l45.65-3.36-11.18,23.26-3.1,6.44-43.53-1.04,10.31-21.44ZM1051.11,591.7l-4.32-14.28,45.02,1.08h.01l3.47,11.47,3.41,11.27-47.59-9.54ZM1059.55,619.6l-5.09-16.83,47.59,9.56h0l5.28,17.48-47.79-10.21ZM1073.48,665.63l-10.56-34.88,47.8,10.22,7.79,25.74-45.03-1.08Z"/>
  <line class="st0" x1="669.92" y1="647.86" x2="669.92" y2="646.54"/>
  <polygon class="st0" points="659.72 648.16 659.72 648.88 659.58 648.18 659.72 648.16"/>
  <path class="st2" d="M103.42,681.79l-2.02-10.2-5.85-29.56-1.98-10.02-2.83-14.31-.25-1.28.25-.04v-125.03h-10.2v17.65l-46.2,7.32v-24.97h-10.21v226.28h10.21v-35.84h58.68l7.09,35.84h10.4l-7.09-35.84ZM34.34,526.65l46.2-7.32v54.96l-46.2-9.03v-38.61ZM34.34,575.65l39.2,7.67,7,1.37v22.98l-2.12.34-44.08,6.98v-39.34ZM34.34,625.32l46.06-7.3.14-.02v.72l2.95,14.89-2.95.47-46.2,7.32v-16.08ZM34.34,671.59v-19.86l51.13-8.1,5.53,27.96h-56.66Z"/>
  <path class="st2" d="M191.8,681.79l-2.02-10.2-5.85-29.56-1.98-10.02-2.83-14.31-.25-1.28.25-.04v-125.03h-10.2v17.65l-46.2,7.32v-24.97h-10.21v226.28h10.21v-35.84h58.68l7.09,35.84h10.4l-7.09-35.84ZM122.72,526.65l46.2-7.32v54.96l-46.2-9.03v-38.61ZM122.72,575.65l39.2,7.67,7,1.37v22.98l-2.12.34-44.08,6.98v-39.34ZM122.72,625.32l46.06-7.3.14-.02v.72l2.95,14.89-2.95.47-46.2,7.32v-16.08ZM122.72,671.59v-19.86l51.13-8.1,5.53,27.96h-56.66Z"/>
  <path class="st2" d="M280.18,681.79l-2.02-10.2-5.85-29.56-1.98-10.02-2.83-14.31-.25-1.28.25-.04v-125.03h-10.2v17.65l-46.2,7.32v-24.97h-10.21v226.28h10.21v-35.84h58.68l7.09,35.84h10.4l-7.09-35.84ZM211.1,526.65l46.2-7.32v54.96l-46.2-9.03v-38.61ZM211.1,575.65l39.2,7.67,7,1.37v22.98l-2.12.34-44.08,6.98v-39.34ZM211.1,625.32l46.06-7.3.14-.02v.72l2.95,14.89-2.95.47-46.2,7.32v-16.08ZM211.1,671.59v-19.86l51.13-8.1,5.53,27.96h-56.66Z"/>
  <path class="st2" d="M368.56,681.79l-2.02-10.2-5.85-29.56-1.98-10.02-2.83-14.31-.25-1.28.25-.04v-125.03h-10.2v17.65l-46.2,7.32v-24.97h-10.21v226.28h10.21v-35.84h58.68l7.09,35.84h10.4l-7.09-35.84ZM299.48,526.65l46.2-7.32v54.96l-46.2-9.03v-38.61ZM299.48,575.65l39.2,7.67,7,1.37v22.98l-2.12.34-44.08,6.98v-39.34ZM299.48,625.32l46.06-7.3.14-.02v.72l2.95,14.89-2.95.47-46.2,7.32v-16.08ZM299.48,671.59v-19.86l51.13-8.1,5.53,27.96h-56.66Z"/>
  <path class="st2" d="M456.95,681.79l-2.02-10.2-5.85-29.56-1.98-10.02-2.83-14.31-.25-1.28.25-.04v-125.03h-10.2v17.65l-46.2,7.32v-24.97h-10.21v226.28h10.21v-35.84h58.68l7.09,35.84h10.4l-7.09-35.84ZM387.87,526.65l46.2-7.32v54.96l-46.2-9.03v-38.61ZM387.87,575.65l39.2,7.67,7,1.37v22.98l-2.12.34-44.08,6.98v-39.34ZM387.87,625.32l46.06-7.3.14-.02v.72l2.95,14.89-2.95.47-46.2,7.32v-16.08ZM387.87,671.59v-19.86l51.13-8.1,5.53,27.96h-56.66Z"/>
  <path class="st2" d="M545.33,681.79l-2.02-10.2-5.85-29.56-1.98-10.02-2.83-14.31-.25-1.28.25-.04v-125.03h-10.2v17.65l-46.2,7.32v-24.97h-10.21v226.28h10.21v-35.84h58.68l7.09,35.84h10.4l-7.09-35.84ZM476.25,526.65l46.2-7.32v54.96l-46.2-9.03v-38.61ZM476.25,575.65l39.2,7.67,7,1.37v22.98l-2.12.34-44.08,6.98v-39.34ZM476.25,625.32l46.06-7.3.14-.02v.72l2.95,14.89-2.95.47-46.2,7.32v-16.08ZM476.25,671.59v-19.86l51.13-8.1,5.53,27.96h-56.66Z"/>
  <path class="st2" d="M633.71,681.79l-2.02-10.2-5.85-29.56-1.98-10.02-2.83-14.31-.25-1.28.25-.04v-125.03h-10.2v17.65l-46.2,7.32v-24.97h-10.21v226.28h10.21v-35.84h58.68l7.09,35.84h10.4l-7.09-35.84ZM564.63,526.65l46.2-7.32v54.96l-46.2-9.03v-38.61ZM564.63,575.65l39.2,7.67,7,1.37v22.98l-2.12.34-44.08,6.98v-39.34ZM564.63,625.32l46.06-7.3.14-.02v.72l2.95,14.89-2.95.47-46.2,7.32v-16.08ZM564.63,671.59v-19.86l51.13-8.1,5.53,27.96h-56.66Z"/>
  <path class="st2" d="M722.09,681.79l-2.02-10.2-5.85-29.56-1.98-10.02-2.83-14.31-.25-1.28.25-.04v-125.03h-10.2v17.65l-46.2,7.32v-24.97h-10.21v226.28h10.21v-35.84h58.68l7.09,35.84h10.4l-7.09-35.84ZM653.01,526.65l46.2-7.32v54.96l-46.2-9.03v-38.61ZM653.01,575.65l39.2,7.67,7,1.37v22.98l-2.12.34-44.08,6.98v-39.34ZM653.01,625.32l46.06-7.3.14-.02v.72l2.95,14.89-2.95.47-46.2,7.32v-16.08ZM653.01,671.59v-19.86l51.13-8.1,5.53,27.96h-56.66Z"/>
  <path class="st2" d="M810.47,681.79l-2.02-10.2-5.85-29.56-1.98-10.02-2.83-14.31-.25-1.28.25-.04v-125.03h-10.2v17.65l-46.2,7.32v-24.97h-10.21v226.28h10.21v-35.84h58.68l7.09,35.84h10.4l-7.09-35.84ZM741.39,526.65l46.2-7.32v54.96l-46.2-9.03v-38.61ZM741.39,575.65l39.2,7.67,7,1.37v22.98l-2.12.34-44.08,6.98v-39.34ZM741.39,625.32l46.06-7.3.14-.02v.72l2.95,14.89-2.95.47-46.2,7.32v-16.08ZM741.39,671.59v-19.86l51.13-8.1,5.53,27.96h-56.66Z"/>
  <path class="st2" d="M898.85,681.79l-2.02-10.2-5.85-29.56-1.98-10.02-2.83-14.31-.25-1.28.25-.04v-125.03h-10.2v17.65l-46.2,7.32v-24.97h-10.21v226.28h10.21v-35.84h58.68l7.09,35.84h10.4l-7.09-35.84ZM829.77,526.65l46.2-7.32v54.96l-46.2-9.03v-38.61ZM829.77,575.65l39.2,7.67,7,1.37v22.98l-2.12.34-44.08,6.98v-39.34ZM829.77,625.32l46.06-7.3.14-.02v.72l2.95,14.89-2.95.47-46.2,7.32v-16.08ZM829.77,671.59v-19.86l51.13-8.1,5.53,27.96h-56.66Z"/>
  <path class="st2" d="M102.05,445.15l-1.65-10.21-3.22-19.93-1.67-10.32-5.05-31.18-.5-3.08.5-.22v-11.14s.01-19.61.01-19.61h6.17v-10.2h-6.17v-74.14h-10.21v9.37l-39.85,1.29v-10.57h-10.21v74.05h-6.8v10.2h6.8v33.62s-.01.03-.01.03l-2.15,13.17-1.95,11.99-.37,2.24-1.65,10.13-3.96,24.3-1.66,10.21-5.93,36.39h10.34l5.93-36.39h62.93l5.89,36.39h10.33l-5.89-36.39ZM40.41,275.99l39.85-1.29v30.78l-.85-.24-10.83-3.05-28.17-7.93v-18.27ZM40.41,304.86l.86.24,9.89,2.78,19.22,5.42,9.88,2.78v13.18h-39.85v-24.4ZM40.4,373.86v-34.4h39.86v24.06l-1.63.71h-.01l-38.22,16.66v-7.03ZM37.22,393.42l3.18-1.39,39.85-17.37v-.39l.06.37,4.76,29.43-4.82-.29-39.85-2.39-4.44-.26,1.26-7.71ZM90.46,437.36l-.39-2.42H30.45l-.26,1.61v-1.61h.26l3.86-23.69,6.09.37,39.85,2.38,6.49.39,3.33,20.55h.39v2.42Z"/>
  <line class="st0" x1="90.46" y1="373.51" x2="90.46" y2="370.21"/>
  <polygon class="st0" points="30.45 434.94 30.19 436.55 30.19 434.94 30.45 434.94"/>
  <polygon class="st0" points="1053.7 618.75 1053.57 619.57 1050.9 619.14 1053.7 618.75"/>
  <polygon class="st0" points="30.19 434.94 30.45 434.94 30.19 436.55 30.19 434.94"/>
  <polygon class="st0" points="90.46 434.94 90.46 437.36 90.07 434.94 90.46 434.94"/>
  <polygon class="st0" points="80.31 374.64 80.25 374.66 80.25 374.27 80.31 374.64"/>
  <path class="st2" d="M106.76,291.51l1.65,10.21,3.22,19.93,1.67,10.32,5.05,31.18.5,3.08-.5.22v11.14s-.01,19.61-.01,19.61h-6.17v10.2h6.17v74.14h10.21v-9.37l39.85-1.29v10.57h10.21v-74.05h6.8v-10.2h-6.8v-33.62s.01-.03.01-.03l2.15-13.17,1.95-11.99.37-2.24,1.65-10.13,3.96-24.3,1.66-10.21,5.93-36.39h-10.34l-5.93,36.39h-62.93l-5.89-36.39h-10.33l5.89,36.39ZM168.4,460.67l-39.85,1.29v-30.78l.85.24,10.83,3.05,28.17,7.93v18.27ZM168.4,431.8l-.86-.24-9.89-2.78-19.22-5.42-9.88-2.78v-13.18h39.85v24.4ZM168.41,362.8v34.4h-39.86v-24.06l1.63-.71h.01l38.22-16.66v7.03ZM171.59,343.24l-3.18,1.39-39.85,17.37v.39l-.06-.37-4.76-29.43,4.82.29,39.85,2.39,4.44.26-1.26,7.71ZM118.35,299.3l.39,2.42h59.62l.26-1.61v1.61h-.26l-3.86,23.69-6.09-.37-39.85-2.38-6.49-.39-3.33-20.55h-.39v-2.42Z"/>
  <line class="st0" x1="118.35" y1="363.15" x2="118.35" y2="366.45"/>
  <polygon class="st0" points="178.36 301.72 178.62 300.11 178.62 301.72 178.36 301.72"/>
  <polygon class="st0" points="178.62 301.72 178.36 301.72 178.62 300.11 178.62 301.72"/>
  <polygon class="st0" points="118.35 301.72 118.35 299.3 118.74 301.72 118.35 301.72"/>
  <polygon class="st0" points="128.5 362.02 128.56 362 128.56 362.39 128.5 362.02"/>
  <path class="st2" d="M274.92,445.15l-1.65-10.21-3.22-19.93-1.67-10.32-5.05-31.18-.5-3.08.5-.22v-11.14s.01-19.61.01-19.61h6.17v-10.2h-6.17v-74.14h-10.21v9.37l-39.85,1.29v-10.57h-10.21v74.05h-6.8v10.2h6.8v33.62s-.01.03-.01.03l-2.15,13.17-1.95,11.99-.37,2.24-1.65,10.13-3.96,24.3-1.66,10.21-5.93,36.39h10.34l5.93-36.39h62.93l5.89,36.39h10.33l-5.89-36.39ZM213.28,275.99l39.85-1.29v30.78l-.85-.24-10.83-3.05-28.17-7.93v-18.27ZM213.28,304.86l.86.24,9.89,2.78,19.22,5.42,9.88,2.78v13.18h-39.85v-24.4ZM213.27,373.86v-34.4h39.86v24.06l-1.63.71h-.01l-38.22,16.66v-7.03ZM210.09,393.42l3.18-1.39,39.85-17.37v-.39l.06.37,4.76,29.43-4.82-.29-39.85-2.39-4.44-.26,1.26-7.71ZM263.33,437.36l-.39-2.42h-59.62l-.26,1.61v-1.61h.26l3.86-23.69,6.09.37,39.85,2.38,6.49.39,3.33,20.55h.39v2.42Z"/>
  <line class="st0" x1="263.33" y1="373.51" x2="263.33" y2="370.21"/>
  <polygon class="st0" points="253.18 374.64 253.12 374.66 253.12 374.27 253.18 374.64"/>
  <path class="st2" d="M279.62,291.51l1.65,10.21,3.22,19.93,1.67,10.32,5.05,31.18.5,3.08-.5.22v11.14s-.01,19.61-.01,19.61h-6.17v10.2h6.17v74.14h10.21v-9.37l39.85-1.29v10.57h10.21v-74.05h6.8v-10.2h-6.8v-33.62s.01-.03.01-.03l2.15-13.17,1.95-11.99.37-2.24,1.65-10.13,3.96-24.3,1.66-10.21,5.93-36.39h-10.34l-5.93,36.39h-62.93l-5.89-36.39h-10.33l5.89,36.39ZM341.26,460.67l-39.85,1.29v-30.78l.85.24,10.83,3.05,28.17,7.93v18.27ZM341.26,431.8l-.86-.24-9.89-2.78-19.22-5.42-9.88-2.78v-13.18h39.85v24.4ZM341.27,362.8v34.4h-39.86v-24.06l1.63-.71h.01l38.22-16.66v7.03ZM344.45,343.24l-3.18,1.39-39.85,17.37v.39l-.06-.37-4.76-29.43,4.82.29,39.85,2.39,4.44.26-1.26,7.71ZM291.21,299.3l.39,2.42h59.62l.26-1.61v1.61h-.26l-3.86,23.69-6.09-.37-39.85-2.38-6.49-.39-3.33-20.55h-.39v-2.42Z"/>
  <line class="st0" x1="291.21" y1="363.15" x2="291.21" y2="366.45"/>
  <polygon class="st0" points="301.36 362.02 301.42 362 301.42 362.39 301.36 362.02"/>
  <path class="st2" d="M447.78,445.15l-1.65-10.21-3.22-19.93-1.67-10.32-5.05-31.18-.5-3.08.5-.22v-11.14s.01-19.61.01-19.61h6.17v-10.2h-6.17v-74.14h-10.21v9.37l-39.85,1.29v-10.57h-10.21v74.05h-6.8v10.2h6.8v33.62s-.01.03-.01.03l-2.15,13.17-1.95,11.99-.37,2.24-1.65,10.13-3.96,24.3-1.66,10.21-5.93,36.39h10.34l5.93-36.39h62.93l5.89,36.39h10.33l-5.89-36.39ZM386.14,275.99l39.85-1.29v30.78l-.85-.24-10.83-3.05-28.17-7.93v-18.27ZM386.14,304.86l.86.24,9.89,2.78,19.22,5.42,9.88,2.78v13.18h-39.85v-24.4ZM386.13,373.86v-34.4h39.86v24.06l-1.63.71h-.01l-38.22,16.66v-7.03ZM382.95,393.42l3.18-1.39,39.85-17.37v-.39l.06.37,4.76,29.43-4.82-.29-39.85-2.39-4.44-.26,1.26-7.71ZM436.19,437.36l-.39-2.42h-59.62l-.26,1.61v-1.61h.26l3.86-23.69,6.09.37,39.85,2.38,6.49.39,3.33,20.55h.39v2.42Z"/>
  <line class="st0" x1="436.19" y1="373.51" x2="436.19" y2="370.21"/>
  <polygon class="st0" points="426.04 374.64 425.98 374.66 425.98 374.27 426.04 374.64"/>
  <path class="st2" d="M452.48,291.51l1.65,10.21,3.22,19.93,1.67,10.32,5.05,31.18.5,3.08-.5.22v11.14s-.01,19.61-.01,19.61h-6.17v10.2h6.17v74.14h10.21v-9.37l39.85-1.29v10.57h10.21v-74.05h6.8v-10.2h-6.8v-33.62s.01-.03.01-.03l2.15-13.17,1.95-11.99.37-2.24,1.65-10.13,3.96-24.3,1.66-10.21,5.93-36.39h-10.34l-5.93,36.39h-62.93l-5.89-36.39h-10.33l5.89,36.39ZM514.12,460.67l-39.85,1.29v-30.78l.85.24,10.83,3.05,28.17,7.93v18.27ZM514.12,431.8l-.86-.24-9.89-2.78-19.22-5.42-9.88-2.78v-13.18h39.85v24.4ZM514.13,362.8v34.4h-39.86v-24.06l1.63-.71h.01l38.22-16.66v7.03ZM517.31,343.24l-3.18,1.39-39.85,17.37v.39l-.06-.37-4.76-29.43,4.82.29,39.85,2.39,4.44.26-1.26,7.71ZM464.07,299.3l.39,2.42h59.62l.26-1.61v1.61h-.26l-3.86,23.69-6.09-.37-39.85-2.38-6.49-.39-3.33-20.55h-.39v-2.42Z"/>
  <line class="st0" x1="464.07" y1="363.15" x2="464.07" y2="366.45"/>
  <polygon class="st0" points="474.22 362.02 474.28 362 474.28 362.39 474.22 362.02"/>
  <path class="st2" d="M620.64,445.15l-1.65-10.21-3.22-19.93-1.67-10.32-5.05-31.18-.5-3.08.5-.22v-11.14s.01-19.61.01-19.61h6.17v-10.2h-6.17v-74.14h-10.21v9.37l-39.85,1.29v-10.57h-10.21v74.05h-6.8v10.2h6.8v33.62s-.01.03-.01.03l-2.15,13.17-1.95,11.99-.37,2.24-1.65,10.13-3.96,24.3-1.66,10.21-5.93,36.39h10.34l5.93-36.39h62.93l5.89,36.39h10.33l-5.89-36.39ZM559,275.99l39.85-1.29v30.78l-.85-.24-10.83-3.05-28.17-7.93v-18.27ZM559,304.86l.86.24,9.89,2.78,19.22,5.42,9.88,2.78v13.18h-39.85v-24.4ZM558.99,373.86v-34.4h39.86v24.06l-1.63.71h-.01l-38.22,16.66v-7.03ZM555.81,393.42l3.18-1.39,39.85-17.37v-.39l.06.37,4.76,29.43-4.82-.29-39.85-2.39-4.44-.26,1.26-7.71ZM609.05,437.36l-.39-2.42h-59.62l-.26,1.61v-1.61h.26l3.86-23.69,6.09.37,39.85,2.38,6.49.39,3.33,20.55h.39v2.42Z"/>
  <line class="st0" x1="609.05" y1="373.51" x2="609.05" y2="370.21"/>
  <polygon class="st0" points="598.9 374.64 598.84 374.66 598.84 374.27 598.9 374.64"/>
  <path class="st2" d="M625.35,291.51l1.65,10.21,3.22,19.93,1.67,10.32,5.05,31.18.5,3.08-.5.22v11.14s-.01,19.61-.01,19.61h-6.17v10.2h6.17v74.14h10.21v-9.37l39.85-1.29v10.57h10.21v-74.05h6.8v-10.2h-6.8v-33.62s.01-.03.01-.03l2.15-13.17,1.95-11.99.37-2.24,1.65-10.13,3.96-24.3,1.66-10.21,5.93-36.39h-10.34l-5.93,36.39h-62.93l-5.89-36.39h-10.33l5.89,36.39ZM686.99,460.67l-39.85,1.29v-30.78l.85.24,10.83,3.05,28.17,7.93v18.27ZM686.99,431.8l-.86-.24-9.89-2.78-19.22-5.42-9.88-2.78v-13.18h39.85v24.4ZM687,362.8v34.4h-39.86v-24.06l1.63-.71h.01l38.22-16.66v7.03ZM690.18,343.24l-3.18,1.39-39.85,17.37v.39l-.06-.37-4.76-29.43,4.82.29,39.85,2.39,4.44.26-1.26,7.71ZM636.94,299.3l.39,2.42h59.62l.26-1.61v1.61h-.26l-3.86,23.69-6.09-.37-39.85-2.38-6.49-.39-3.33-20.55h-.39v-2.42Z"/>
  <line class="st0" x1="636.94" y1="363.15" x2="636.94" y2="366.45"/>
  <polygon class="st0" points="647.09 362.02 647.15 362 647.15 362.39 647.09 362.02"/>
  <path class="st2" d="M793.5,445.15l-1.65-10.21-3.22-19.93-1.67-10.32-5.05-31.18-.5-3.08.5-.22v-11.14s.01-19.61.01-19.61h6.17v-10.2h-6.17v-74.14h-10.21v9.37l-39.85,1.29v-10.57h-10.21v74.05h-6.8v10.2h6.8v33.62s-.01.03-.01.03l-2.15,13.17-1.95,11.99-.37,2.24-1.65,10.13-3.96,24.3-1.66,10.21-5.93,36.39h10.34l5.93-36.39h62.93l5.89,36.39h10.33l-5.89-36.39ZM731.86,275.99l39.85-1.29v30.78l-.85-.24-10.83-3.05-28.17-7.93v-18.27ZM731.86,304.86l.86.24,9.89,2.78,19.22,5.42,9.88,2.78v13.18h-39.85v-24.4ZM731.85,373.86v-34.4h39.86v24.06l-1.63.71h-.01l-38.22,16.66v-7.03ZM728.67,393.42l3.18-1.39,39.85-17.37v-.39l.06.37,4.76,29.43-4.82-.29-39.85-2.39-4.44-.26,1.26-7.71ZM781.91,437.36l-.39-2.42h-59.62l-.26,1.61v-1.61h.26l3.86-23.69,6.09.37,39.85,2.38,6.49.39,3.33,20.55h.39v2.42Z"/>
  <line class="st0" x1="781.91" y1="373.51" x2="781.91" y2="370.21"/>
  <polygon class="st0" points="771.76 374.64 771.7 374.66 771.7 374.27 771.76 374.64"/>
  <path class="st2" d="M798.21,291.51l1.65,10.21,3.22,19.93,1.67,10.32,5.05,31.18.5,3.08-.5.22v11.14s-.01,19.61-.01,19.61h-6.17v10.2h6.17v74.14h10.21v-9.37l39.85-1.29v10.57h10.21v-74.05h6.8v-10.2h-6.8v-33.62s.01-.03.01-.03l2.15-13.17,1.95-11.99.37-2.24,1.65-10.13,3.96-24.3,1.66-10.21,5.93-36.39h-10.34l-5.93,36.39h-62.93l-5.89-36.39h-10.33l5.89,36.39ZM859.85,460.67l-39.85,1.29v-30.78l.85.24,10.83,3.05,28.17,7.93v18.27ZM859.85,431.8l-.86-.24-9.89-2.78-19.22-5.42-9.88-2.78v-13.18h39.85v24.4ZM859.86,362.8v34.4h-39.86v-24.06l1.63-.71h.01l38.22-16.66v7.03ZM863.04,343.24l-3.18,1.39-39.85,17.37v.39l-.06-.37-4.76-29.43,4.82.29,39.85,2.39,4.44.26-1.26,7.71ZM809.8,299.3l.39,2.42h59.62l.26-1.61v1.61h-.26l-3.86,23.69-6.09-.37-39.85-2.38-6.49-.39-3.33-20.55h-.39v-2.42Z"/>
  <line class="st0" x1="809.8" y1="363.15" x2="809.8" y2="366.45"/>
  <polygon class="st0" points="819.95 362.02 820.01 362 820.01 362.39 819.95 362.02"/>
  <path class="st2" d="M76.68,20.16v44.89l-45.32-9.55V20.16h-10.2v226.77h10.2v-45.41h.07v-.16h45.35v45.35h-.1v.22h10.21V20.16h-10.21ZM76.68,191.31H31.36v-15.22h45.32v15.22ZM76.68,165.88H31.36v-20.63l45.32-7.39v28.02ZM76.68,127.53l-45.32,7.39v-19.59h45.32v12.2ZM76.68,105.13H31.36v-10.99h45.32v10.99ZM76.68,83.93H31.36v-18l45.32,9.55v8.45Z"/>
  <path class="st2" d="M145.82,20.16v44.89l-45.32-9.55V20.16h-10.2v226.77h10.2v-45.41h.07v-.16h45.35v45.35h-.1v.22h10.21V20.16h-10.21ZM145.82,191.31h-45.32v-15.22h45.32v15.22ZM145.82,165.88h-45.32v-20.63l45.32-7.39v28.02ZM145.82,127.53l-45.32,7.39v-19.59h45.32v12.2ZM145.82,105.13h-45.32v-10.99h45.32v10.99ZM145.82,83.93h-45.32v-18l45.32,9.55v8.45Z"/>
  <path class="st2" d="M215.44,20.16v44.89l-45.32-9.55V20.16h-10.2v226.77h10.2v-45.41h.07v-.16h45.35v45.35h-.1v.22h10.21V20.16h-10.21ZM215.44,191.31h-45.32v-15.22h45.32v15.22ZM215.44,165.88h-45.32v-20.63l45.32-7.39v28.02ZM215.44,127.53l-45.32,7.39v-19.59h45.32v12.2ZM215.44,105.13h-45.32v-10.99h45.32v10.99ZM215.44,83.93h-45.32v-18l45.32,9.55v8.45Z"/>
  <path class="st2" d="M285.06,20.16v44.89l-45.32-9.55V20.16h-10.2v226.77h10.2v-45.41h.07v-.16h45.35v45.35h-.1v.22h10.21V20.16h-10.21ZM285.06,191.31h-45.32v-15.22h45.32v15.22ZM285.06,165.88h-45.32v-20.63l45.32-7.39v28.02ZM285.06,127.53l-45.32,7.39v-19.59h45.32v12.2ZM285.06,105.13h-45.32v-10.99h45.32v10.99ZM285.06,83.93h-45.32v-18l45.32,9.55v8.45Z"/>
  <path class="st2" d="M354.67,20.16v44.89l-45.32-9.55V20.16h-10.2v226.77h10.2v-45.41h.07v-.16h45.35v45.35h-.1v.22h10.21V20.16h-10.21ZM354.67,191.31h-45.32v-15.22h45.32v15.22ZM354.67,165.88h-45.32v-20.63l45.32-7.39v28.02ZM354.67,127.53l-45.32,7.39v-19.59h45.32v12.2ZM354.67,105.13h-45.32v-10.99h45.32v10.99ZM354.67,83.93h-45.32v-18l45.32,9.55v8.45Z"/>
  <path class="st2" d="M467.94,212.55l-1.62-10.21-4.15-26.09-1.62-10.2-3.83-24.15-1.61-10.08-1.99-12.56h5.58v-10.21h-6.45V21.81h-10.2v42.96h-45.82V21.81h-10.2v87.24h-15.18v10.21h16.81l4.7,21.47,2.18,10,1.69,7.71,1.66,7.61,2.23,10.2,1.6,7.3-2.73,18.79-1.49,10.21-1.27,8.74-3.89,26.72h10.32l5.15-35.46h49.8l5.63,35.46h10.34l-5.64-35.46ZM396.23,74.97h45.82v17.97l-45.82-7.31v-10.66ZM398.11,119.26l-1.88-8.59v-14.71l45.82,7.31v11.41l.22,1.4.02.08.49,3.1,2.23,14-42.52,6.03-4.38-20.03ZM405.89,154.87h0s-1.22-5.58-1.22-5.58l41.94-5.95,3.61,22.71h-41.88l-2.45-11.18ZM409.3,202.34l2.79-19.16h0s-1.52-6.93-1.52-6.93h41.27l.41,2.6,3.73,23.49h-46.68Z"/>
  <path class="st2" d="M559.3,212.55l-1.62-10.21-4.15-26.09-1.62-10.2-3.83-24.15-1.61-10.08-1.99-12.56h5.58v-10.21h-6.45V21.81h-10.2v42.96h-45.82V21.81h-10.2v87.24h-15.18v10.21h16.81l4.7,21.47,2.18,10,1.69,7.71,1.66,7.61,2.23,10.2,1.6,7.3-2.73,18.79-1.49,10.21-1.27,8.74-3.89,26.72h10.32l5.15-35.46h49.8l5.63,35.46h10.34l-5.64-35.46ZM487.59,74.97h45.82v17.97l-45.82-7.31v-10.66ZM489.47,119.26l-1.88-8.59v-14.71l45.82,7.31v11.41l.22,1.4.02.08.49,3.1,2.23,14-42.52,6.03-4.38-20.03ZM497.25,154.87h0s-1.22-5.58-1.22-5.58l41.94-5.95,3.61,22.71h-41.88l-2.45-11.18ZM500.66,202.34l2.79-19.16h0s-1.52-6.93-1.52-6.93h41.27l.41,2.6,3.73,23.49h-46.68Z"/>
  <path class="st2" d="M650.65,212.55l-1.62-10.21-4.15-26.09-1.62-10.2-3.83-24.15-1.61-10.08-1.99-12.56h5.58v-10.21h-6.45V21.81h-10.2v42.96h-45.82V21.81h-10.2v87.24h-15.18v10.21h16.81l4.7,21.47,2.18,10,1.69,7.71,1.66,7.61,2.23,10.2,1.6,7.3-2.73,18.79-1.49,10.21-1.27,8.74-3.89,26.72h10.32l5.15-35.46h49.8l5.63,35.46h10.34l-5.64-35.46ZM578.94,74.97h45.82v17.97l-45.82-7.31v-10.66ZM580.82,119.26l-1.88-8.59v-14.71l45.82,7.31v11.41l.22,1.4.02.08.49,3.1,2.23,14-42.52,6.03-4.38-20.03ZM588.6,154.87h0s-1.22-5.58-1.22-5.58l41.94-5.95,3.61,22.71h-41.88l-2.45-11.18ZM592.01,202.34l2.79-19.16h0s-1.52-6.93-1.52-6.93h41.27l.41,2.6,3.73,23.49h-46.68Z"/>
  <path class="st2" d="M742,212.55l-1.62-10.21-4.15-26.09-1.62-10.2-3.83-24.15-1.61-10.08-1.99-12.56h5.58v-10.21h-6.45V21.81h-10.2v42.96h-45.82V21.81h-10.2v87.24h-15.18v10.21h16.81l4.7,21.47,2.18,10,1.69,7.71,1.66,7.61,2.23,10.2,1.6,7.3-2.73,18.79-1.49,10.21-1.27,8.74-3.89,26.72h10.32l5.15-35.46h49.8l5.63,35.46h10.34l-5.64-35.46ZM670.29,74.97h45.82v17.97l-45.82-7.31v-10.66ZM672.17,119.26l-1.88-8.59v-14.71l45.82,7.31v11.41l.22,1.4.02.08.49,3.1,2.23,14-42.52,6.03-4.38-20.03ZM679.95,154.87h0s-1.22-5.58-1.22-5.58l41.94-5.95,3.61,22.71h-41.88l-2.45-11.18ZM683.36,202.34l2.79-19.16h0s-1.52-6.93-1.52-6.93h41.27l.41,2.6,3.73,23.49h-46.68Z"/>
  <path class="st2" d="M833.35,212.55l-1.62-10.21-4.15-26.09-1.62-10.2-3.83-24.15-1.61-10.08-1.99-12.56h5.58v-10.21h-6.45V21.81h-10.2v42.96h-45.82V21.81h-10.2v87.24h-15.18v10.21h16.81l4.7,21.47,2.18,10,1.69,7.71,1.66,7.61,2.23,10.2,1.6,7.3-2.73,18.79-1.49,10.21-1.27,8.74-3.89,26.72h10.32l5.15-35.46h49.8l5.63,35.46h10.34l-5.64-35.46ZM761.64,74.97h45.82v17.97l-45.82-7.31v-10.66ZM763.52,119.26l-1.88-8.59v-14.71l45.82,7.31v11.41l.22,1.4.02.08.49,3.1,2.23,14-42.52,6.03-4.38-20.03ZM771.3,154.87h0s-1.22-5.58-1.22-5.58l41.94-5.95,3.61,22.71h-41.88l-2.45-11.18ZM774.71,202.34l2.79-19.16h0s-1.52-6.93-1.52-6.93h41.27l.41,2.6,3.73,23.49h-46.68Z"/>
  <path class="st2" d="M924.7,212.55l-1.62-10.21-4.15-26.09-1.62-10.2-3.83-24.15-1.61-10.08-1.99-12.56h5.58v-10.21h-6.45V21.81h-10.2v42.96h-45.82V21.81h-10.2v87.24h-15.18v10.21h16.81l4.7,21.47,2.18,10,1.69,7.71,1.66,7.61,2.23,10.2,1.6,7.3-2.73,18.79-1.49,10.21-1.27,8.74-3.89,26.72h10.32l5.15-35.46h49.8l5.63,35.46h10.34l-5.64-35.46ZM852.99,74.97h45.82v17.97l-45.82-7.31v-10.66ZM854.87,119.26l-1.88-8.59v-14.71l45.82,7.31v11.41l.22,1.4.02.08.49,3.1,2.23,14-42.52,6.03-4.38-20.03ZM862.65,154.87h0s-1.22-5.58-1.22-5.58l41.94-5.95,3.61,22.71h-41.88l-2.45-11.18ZM866.06,202.34l2.79-19.16h0s-1.52-6.93-1.52-6.93h41.27l.41,2.6,3.73,23.49h-46.68Z"/>
  <path class="st2" d="M1016.05,212.55l-1.62-10.21-4.15-26.09-1.62-10.2-3.83-24.15-1.61-10.08-1.99-12.56h5.58v-10.21h-6.45V21.81h-10.2v42.96h-45.82V21.81h-10.2v87.24h-15.18v10.21h16.81l4.7,21.47,2.18,10,1.69,7.71,1.66,7.61,2.23,10.2,1.6,7.3-2.73,18.79-1.49,10.21-1.27,8.74-3.89,26.72h10.32l5.15-35.46h49.8l5.63,35.46h10.34l-5.64-35.46ZM944.34,74.97h45.82v17.97l-45.82-7.31v-10.66ZM946.22,119.26l-1.88-8.59v-14.71l45.82,7.31v11.41l.22,1.4.02.08.49,3.1,2.23,14-42.52,6.03-4.38-20.03ZM954,154.87h0s-1.22-5.58-1.22-5.58l41.94-5.95,3.61,22.71h-41.88l-2.45-11.18ZM957.41,202.34l2.79-19.16h0s-1.52-6.93-1.52-6.93h41.27l.41,2.6,3.73,23.49h-46.68Z"/>
  <path class="st2" d="M1107.41,212.55l-1.62-10.21-4.15-26.09-1.62-10.2-3.83-24.15-1.61-10.08-1.99-12.56h5.58v-10.21h-6.45V21.81h-10.2v42.96h-45.82V21.81h-10.2v87.24h-15.18v10.21h16.81l4.7,21.47,2.18,10,1.69,7.71,1.66,7.61,2.23,10.2,1.6,7.3-2.73,18.79-1.49,10.21-1.27,8.74-3.89,26.72h10.32l5.15-35.46h49.8l5.63,35.46h10.34l-5.64-35.46ZM1035.7,74.97h45.82v17.97l-45.82-7.31v-10.66ZM1037.58,119.26l-1.88-8.59v-14.71l45.82,7.31v11.41l.22,1.4.02.08.49,3.1,2.23,14-42.52,6.03-4.38-20.03ZM1045.36,154.87h0s-1.22-5.58-1.22-5.58l41.94-5.95,3.61,22.71h-41.88l-2.45-11.18ZM1048.77,202.34l2.79-19.16h0s-1.52-6.93-1.52-6.93h41.27l.41,2.6,3.73,23.49h-46.68Z"/>
  <path class="st2" d="M977.75,447.25l-1.62-10.21-4.15-26.09-1.62-10.2-3.83-24.15-1.61-10.08-1.99-12.56h5.58v-10.21h-6.45v-87.24h-10.2v42.96h-45.82v-42.96h-10.2v87.24h-15.18v10.21h16.81l4.7,21.47,2.18,10,1.69,7.71,1.66,7.61,2.23,10.2,1.6,7.3-2.73,18.79-1.49,10.21-1.27,8.74-3.89,26.72h10.32l5.15-35.46h49.8l5.63,35.46h10.34l-5.64-35.46ZM906.04,309.67h45.82v17.97l-45.82-7.31v-10.66ZM907.92,353.96l-1.88-8.59v-14.71l45.82,7.31v11.41l.22,1.4.02.08.49,3.1,2.23,14-42.52,6.03-4.38-20.03ZM915.7,389.57h0s-1.22-5.58-1.22-5.58l41.94-5.95,3.61,22.71h-41.88l-2.45-11.18ZM919.11,437.04l2.79-19.16h0s-1.52-6.93-1.52-6.93h41.27l.41,2.6,3.73,23.49h-46.68Z"/>
  <path class="st2" d="M1070.37,447.25l-1.62-10.21-4.15-26.09-1.62-10.2-3.83-24.15-1.61-10.08-1.99-12.56h5.58v-10.21h-6.45v-87.24h-10.2v42.96h-45.82v-42.96h-10.2v87.24h-15.18v10.21h16.81l4.7,21.47,2.18,10,1.69,7.71,1.66,7.61,2.23,10.2,1.6,7.3-2.73,18.79-1.49,10.21-1.27,8.74-3.89,26.72h10.32l5.15-35.46h49.8l5.63,35.46h10.34l-5.64-35.46ZM998.66,309.67h45.82v17.97l-45.82-7.31v-10.66ZM1000.54,353.96l-1.88-8.59v-14.71l45.82,7.31v11.41l.22,1.4.02.08.49,3.1,2.23,14-42.52,6.03-4.38-20.03ZM1008.32,389.57h0s-1.22-5.58-1.22-5.58l41.94-5.95,3.61,22.71h-41.88l-2.45-11.18ZM1011.73,437.04l2.79-19.16h0s-1.52-6.93-1.52-6.93h41.27l.41,2.6,3.73,23.49h-46.68Z"/>
  <path class="st2" d="M49.44,919.29l10.21-1.62,26.09-4.15,10.2-1.62,24.15-3.83,10.08-1.61,12.56-1.99v5.58h10.21v-6.45h87.24v-10.2s-42.96,0-42.96,0v-45.82s42.96,0,42.96,0v-10.2h-87.24v-15.18h-10.21v16.81l-21.47,4.7-10,2.18-7.71,1.69-7.61,1.66-10.2,2.23-7.3,1.6-18.79-2.73-10.21-1.49-8.74-1.27-26.72-3.89v10.32s35.46,5.15,35.46,5.15v49.8l-35.46,5.63v10.34l35.46-5.64ZM187.02,847.58v45.82s-17.97,0-17.97,0l7.31-45.82h10.66ZM142.73,849.46l8.59-1.88h14.71l-7.31,45.82h-11.41l-1.4.22-.08.02-3.1.49-14,2.23-6.03-42.52,20.03-4.38ZM107.12,857.24h0l5.57-1.22,5.95,41.94-22.71,3.61v-41.88l11.18-2.45ZM59.65,860.65l19.16,2.79h.01l6.92-1.52v41.27l-2.6.41-23.49,3.73v-46.68Z"/>
  <path class="st2" d="M236.84,926.55l10.21-1.62,26.09-4.15,10.2-1.62,24.15-3.83,10.08-1.61,12.56-1.99v5.58h10.21v-6.45s87.24,0,87.24,0v-10.2s-42.96,0-42.96,0v-45.82s42.96,0,42.96,0v-10.2h-87.24v-15.18h-10.21v16.81l-21.47,4.7-10,2.18-7.71,1.69-7.61,1.66-10.2,2.23-7.3,1.6-18.79-2.73-10.21-1.49-8.74-1.27-26.72-3.89v10.32s35.46,5.15,35.46,5.15v49.8l-35.46,5.63v10.34l35.46-5.64ZM374.42,854.84v45.82s-17.97,0-17.97,0l7.31-45.82h10.66ZM330.13,856.72l8.59-1.88h14.71l-7.31,45.82h-11.41l-1.4.22-.08.02-3.1.49-14,2.23-6.03-42.52,20.03-4.38ZM294.52,864.5h0l5.57-1.22,5.95,41.94-22.71,3.61v-41.88l11.18-2.45ZM247.05,867.91l19.16,2.79h.01l6.92-1.52v41.27l-2.6.41-23.49,3.73v-46.68Z"/>
  <path class="st2" d="M424.24,933.81l10.21-1.62,26.09-4.15,10.2-1.62,24.15-3.83,10.08-1.61,12.56-1.99v5.58h10.21v-6.45s87.24,0,87.24,0v-10.2s-42.96,0-42.96,0v-45.82s42.96,0,42.96,0v-10.2h-87.24v-15.18h-10.21v16.81l-21.47,4.7-10,2.18-7.71,1.69-7.61,1.66-10.2,2.23-7.3,1.6-18.79-2.73-10.21-1.49-8.74-1.27-26.72-3.89v10.32s35.46,5.15,35.46,5.15v49.8l-35.46,5.63v10.34l35.46-5.64ZM561.82,862.1v45.82s-17.97,0-17.97,0l7.31-45.82h10.66ZM517.53,863.98l8.59-1.88h14.71l-7.31,45.82h-11.41l-1.4.22-.08.02-3.1.49-14,2.23-6.03-42.52,20.03-4.38ZM481.92,871.76h0l5.57-1.22,5.95,41.94-22.71,3.61v-41.88l11.18-2.45ZM434.45,875.17l19.16,2.79h.01l6.92-1.52v41.27l-2.6.41-23.49,3.73v-46.68Z"/>
  <path class="st2" d="M611.65,941.07l10.21-1.62,26.09-4.15,10.2-1.62,24.15-3.83,10.08-1.61,12.56-1.99v5.58h10.21v-6.45h87.24v-10.2s-42.96,0-42.96,0v-45.82s42.96,0,42.96,0v-10.2h-87.24v-15.18h-10.21v16.81l-21.47,4.7-10,2.18-7.71,1.69-7.61,1.66-10.2,2.23-7.3,1.6-18.79-2.73-10.21-1.49-8.74-1.27-26.72-3.89v10.32s35.46,5.15,35.46,5.15v49.8l-35.46,5.63v10.34l35.46-5.64ZM749.23,869.36v45.82s-17.97,0-17.97,0l7.31-45.82h10.66ZM704.94,871.24l8.59-1.88h14.71l-7.31,45.82h-11.41l-1.4.22-.08.02-3.1.49-14,2.23-6.03-42.52,20.03-4.38ZM669.33,879.02h0l5.57-1.22,5.95,41.94-22.71,3.61v-41.88l11.18-2.45ZM621.86,882.43l19.16,2.79h.01l6.92-1.52v41.27l-2.6.41-23.49,3.73v-46.68Z"/>
  <path class="st2" d="M799.05,948.33l10.21-1.62,26.09-4.15,10.2-1.62,24.15-3.83,10.08-1.61,12.56-1.99v5.58h10.21v-6.45h87.24v-10.2s-42.96,0-42.96,0v-45.82s42.96,0,42.96,0v-10.2h-87.24v-15.18h-10.21v16.81l-21.47,4.7-10,2.18-7.71,1.69-7.61,1.66-10.2,2.23-7.3,1.6-18.79-2.73-10.21-1.49-8.74-1.27-26.72-3.89v10.32s35.46,5.15,35.46,5.15v49.8l-35.46,5.63v10.34l35.46-5.64ZM936.63,876.62v45.82s-17.97,0-17.97,0l7.31-45.82h10.66ZM892.34,878.5l8.59-1.88h14.71l-7.31,45.82h-11.41l-1.4.22-.08.02-3.1.49-14,2.23-6.03-42.52,20.03-4.38ZM856.73,886.28h0l5.57-1.22,5.95,41.94-22.71,3.61v-41.88l11.18-2.45ZM809.26,889.69l19.16,2.79h.01l6.92-1.52v41.27l-2.6.41-23.49,3.73v-46.68Z"/>
  <path class="st2" d="M986.46,955.59l10.21-1.62,26.09-4.15,10.2-1.62,24.15-3.83,10.08-1.61,12.56-1.99v5.58h10.21v-6.45h87.24v-10.2h-42.96v-45.82h42.96v-10.2h-87.24v-15.18h-10.21v16.81l-21.47,4.7-10,2.18-7.71,1.69-7.61,1.66-10.2,2.23-7.3,1.6-18.79-2.73-10.21-1.49-8.74-1.27-26.72-3.89v10.32s35.46,5.15,35.46,5.15v49.8l-35.46,5.63v10.34l35.46-5.64ZM1124.04,883.88v45.82h-17.97l7.31-45.82h10.66ZM1079.75,885.76l8.59-1.88h14.71l-7.31,45.82h-11.41l-1.4.22-.08.02-3.1.49-14,2.23-6.03-42.52,20.03-4.38ZM1044.14,893.54h0l5.57-1.22,5.95,41.94-22.71,3.61v-41.88l11.18-2.45ZM996.67,896.95l19.16,2.79h.01l6.92-1.52v41.27l-2.6.41-23.49,3.73v-46.68Z"/>
  <path class="st2" d="M1196.12,228.91l-1.62-10.21-4.15-26.09-1.62-10.2-3.83-24.15-1.61-10.08-1.99-12.56h5.58v-10.21h-6.45V38.17h-10.2v42.96h-45.82v-42.96h-10.2v87.24h-15.18v10.21h16.81l4.7,21.47,2.18,10,1.69,7.71,1.66,7.61,2.23,10.2,1.6,7.3-2.73,18.79-1.49,10.21-1.27,8.74-3.89,26.72h10.32l5.15-35.46h49.8l5.63,35.46h10.34l-5.64-35.46ZM1124.41,91.33h45.82v17.97l-45.82-7.31v-10.66ZM1126.29,135.62l-1.88-8.59v-14.71l45.82,7.31v11.41l.22,1.4.02.08.49,3.1,2.23,14-42.52,6.03-4.38-20.03ZM1134.07,171.23h0s-1.22-5.58-1.22-5.58l41.94-5.95,3.61,22.71h-41.88l-2.45-11.18ZM1137.48,218.7l2.79-19.16h0s-1.52-6.93-1.52-6.93h41.27l.41,2.6,3.73,23.49h-46.68Z"/>
  <path class="st2" d="M1219.41,678.92l-1.62-10.21-4.15-26.09-1.62-10.2-3.83-24.15-1.61-10.08-1.99-12.56h5.58v-10.21h-6.45v-87.24h-10.2v42.96h-45.82v-42.96h-10.2v87.24h-15.18v10.21h16.81l4.7,21.47,2.18,10,1.69,7.71,1.66,7.61,2.23,10.2,1.6,7.3-2.73,18.79-1.49,10.21-1.27,8.74-3.89,26.72h10.32l5.15-35.46h49.8l5.63,35.46h10.34l-5.64-35.46ZM1147.7,541.34h45.82v17.97l-45.82-7.31v-10.66ZM1149.58,585.63l-1.88-8.59v-14.71l45.82,7.31v11.41l.22,1.4.02.08.49,3.1,2.23,14-42.52,6.03-4.38-20.03ZM1157.36,621.24h0s-1.22-5.58-1.22-5.58l41.94-5.95,3.61,22.71h-41.88l-2.45-11.18ZM1160.77,668.71l2.79-19.16h0s-1.52-6.93-1.52-6.93h41.27l.41,2.6,3.73,23.49h-46.68Z"/>
  <line class="st1" x1="906.78" y1="747.79" x2="902.96" y2="747.79"/>
</svg>