<?xml version="1.0" encoding="UTF-8"?>
<svg id="Calque_1" xmlns="http://www.w3.org/2000/svg" version="1.1" viewBox="0 0 841.89 595.28">
  <!-- Generator: Adobe Illustrator 30.0.0, SVG Export Plug-In . SVG Version: 2.1.1 Build 123)  -->
  <defs>
    <style>
      .st0 {
        font-size: 9.85px;
      }

      .st0, .st1, .st2, .st3, .st4, .st5, .st6 {
        fill: #1d1d1b;
      }

      .st0, .st1, .st3, .st4, .st5, .st6 {
        font-family: HelveticaNeue, 'Helvetica Neue';
      }

      .st1 {
        font-size: 9.29px;
      }

      .st7 {
        fill: #9c9b9b;
      }

      .st8 {
        stroke-width: .59px;
      }

      .st8, .st9, .st10 {
        stroke: #010101;
        stroke-linecap: round;
        stroke-linejoin: round;
      }

      .st8, .st9, .st10, .st11 {
        fill: none;
      }

      .st9 {
        stroke-width: .53px;
      }

      .st10 {
        stroke-width: .47px;
      }

      .st12 {
        fill: #d8d8d8;
      }

      .st13 {
        fill: #345da8;
      }

      .st14 {
        fill: #fff;
        stroke: #000;
        stroke-width: .7px;
      }

      .st14, .st11 {
        stroke-miterlimit: 10;
      }

      .st15 {
        fill: #f6e81d;
      }

      .st16 {
        fill: #e52421;
      }

      .st11 {
        stroke: #1d1d1b;
      }

      .st3 {
        font-size: 19.69px;
      }

      .st4 {
        font-size: 15.47px;
      }

      .st5 {
        font-size: 37.98px;
      }

      .st17 {
        fill: #6fb62c;
      }

      .st6 {
        font-size: 57.81px;
      }
    </style>
  </defs>
  <g>
    <rect class="st14" x="-816.32" y="474.62" width="109.44" height="40.41" rx="-298.72" ry="-298.72" transform="translate(-1523.2 989.65) rotate(180)"/>
    <text class="st3" transform="translate(-797.73 500.59)"><tspan x="0" y="0">Matériel</tspan></text>
  </g>
  <text class="st0" transform="translate(-810.67 43.94)"><tspan x="0" y="0">Les six chapeaux de Bono font partie des méthodes répandues de </tspan><tspan x="0" y="11.81">résolution de problème, et parfois de créativité. Cette méthode est </tspan><tspan x="0" y="23.63">extraite de l’ouvrage « Six chapeaux pour penser ». C’est une </tspan><tspan x="0" y="35.44">méthode de management personnel ou de groupe, développée par </tspan><tspan x="0" y="47.26">Edward de Bono, permettant de traiter les problèmes dont une des </tspan><tspan x="0" y="59.07">conséquences est d’éviter la censure des idées nouvelles, </tspan><tspan x="0" y="70.89">dérangeantes, inhabituelles.</tspan></text>
  <text class="st1" transform="translate(-766.09 212.04)"><tspan x="0" y="0">NEUTRALITÉ</tspan><tspan x="-28.38" y="11.14">Faits. chiffres. informations </tspan><tspan x="-25.29" y="22.29">dénuées d&apos;interprétations</tspan></text>
  <text class="st1" transform="translate(-821.55 658.02)"><tspan x="0" y="0">L’echelle posée ne doit </tspan><tspan x="-6.45" y="11.14">toucher qu’un seul echelle </tspan></text>
  <text class="st1" transform="translate(-619.7 658.02)"><tspan x="0" y="0">L’echelle posée doit toucher </tspan><tspan x="-4.04" y="11.14">au moins deux autres echelles</tspan></text>
  <text class="st1" transform="translate(-437.36 658.02)"><tspan x="0" y="0">L’echelle posée être la plus </tspan><tspan x="44.97" y="11.14">haute</tspan></text>
  <text class="st1" transform="translate(-571.55 212.04)"><tspan x="0" y="0">ÉMOTIONS</tspan><tspan x="-21.33" y="11.14">Intuitions. sentiments.</tspan><tspan x="-35.26" y="22.29">impressions. pressentiments</tspan></text>
  <text class="st1" transform="translate(-392.57 212.04)"><tspan x="0" y="0">CRÉATIVITÉ</tspan><tspan x="-47.56" y="11.14">Fertilité des idées, aucune censure.</tspan><tspan x="-32.68" y="22.29">idées farfelues, provocantes</tspan></text>
  <text class="st1" transform="translate(-401.35 323.47)"><tspan x="0" y="0">ORGANISATION</tspan><tspan x="-30.53" y="11.14">Canalisation des idées, rigueur.</tspan><tspan x="-22.1" y="22.29">discipline, solution à retenir</tspan></text>
  <text class="st1" transform="translate(-572.92 323.47)"><tspan x="0" y="0">OPTIMISME</tspan><tspan x="-38.52" y="11.14">Critique positive, rêves, espoir, </tspan><tspan x="-29.58" y="22.29">commentaires constructifs</tspan></text>
  <text class="st1" transform="translate(-766.63 323.47)"><tspan x="0" y="0">PESSIMISME</tspan><tspan x="-30.1" y="11.14">Prudence, dangers. risques.</tspan><tspan x="-24.51" y="22.29">objections. inconvénients</tspan></text>
  <g>
    <rect class="st14" x="-816.32" y="-10.53" width="347.45" height="40.41" rx="-60.71" ry="-60.71" transform="translate(-1285.19 19.36) rotate(-180)"/>
    <text class="st3" transform="translate(-797.73 15.44)"><tspan x="0" y="0">Les Chapeau de bono c’est quoi ?</tspan></text>
  </g>
  <g>
    <rect class="st12" x="-754.77" y="152.55" width="32.7" height="32.7" rx="-344.68" ry="-344.68"/>
    <rect class="st12" x="-766.69" y="180.55" width="56.54" height="15.52" rx="-326.8" ry="-326.8"/>
    <rect class="st7" x="-754.79" y="175.83" width="32.7" height="4.7"/>
  </g>
  <g>
    <rect class="st16" x="-563.73" y="152.55" width="32.7" height="32.7" rx="-249.17" ry="-249.17"/>
    <rect class="st16" x="-575.65" y="180.55" width="56.54" height="15.52" rx="-231.28" ry="-231.28"/>
    <rect class="st7" x="-563.76" y="175.83" width="32.7" height="4.7"/>
  </g>
  <g>
    <rect class="st17" x="-383.13" y="152.55" width="32.7" height="32.7" rx="-158.87" ry="-158.87"/>
    <rect class="st17" x="-395.06" y="180.55" width="56.54" height="15.52" rx="-140.98" ry="-140.98"/>
    <rect class="st7" x="-383.16" y="175.83" width="32.7" height="4.7"/>
  </g>
  <g>
    <rect class="st2" x="-754.78" y="264.99" width="32.7" height="32.7" rx="-344.69" ry="-344.69"/>
    <rect class="st2" x="-766.7" y="293" width="56.54" height="15.52" rx="-326.81" ry="-326.81"/>
    <rect class="st7" x="-754.81" y="288.28" width="32.7" height="4.7"/>
  </g>
  <g>
    <rect class="st15" x="-563.73" y="264.99" width="32.7" height="32.7" rx="-249.17" ry="-249.17"/>
    <rect class="st15" x="-575.65" y="293" width="56.54" height="15.52" rx="-231.28" ry="-231.28"/>
    <rect class="st7" x="-563.76" y="288.28" width="32.7" height="4.7"/>
  </g>
  <g>
    <rect class="st13" x="-383.13" y="264.99" width="32.7" height="32.7" rx="-158.87" ry="-158.87"/>
    <rect class="st13" x="-395.06" y="293" width="56.54" height="15.52" rx="-140.98" ry="-140.98"/>
    <rect class="st7" x="-383.16" y="288.28" width="32.7" height="4.7"/>
  </g>
  <text class="st4" transform="translate(-810.83 551.22)"><tspan x="0" y="0">Le dé echelle</tspan></text>
  <path class="st8" d="M-788.71,568.28v15.28l-15.43-3.25v-12.03h-3.47v77.2h3.47v-15.46h.02v-.05h15.44v15.44h-.03v.07h3.48v-77.2h-3.48ZM-788.71,626.55h-15.43v-5.18h15.43v5.18ZM-788.71,617.89h-15.43v-7.02l15.43-2.52v9.54ZM-788.71,604.84l-15.43,2.52v-6.67h15.43v4.15ZM-788.71,597.21h-15.43v-3.74h15.43v3.74ZM-788.71,589.99h-15.43v-6.13l15.43,3.25v2.88Z"/>
  <path class="st8" d="M-778.3,565.72l5.37,14.31-15.59,2.38-4.23-11.26-3.25,1.22,27.13,72.28,3.25-1.22-5.43-14.47h.02s-.02-.06-.02-.06l14.45-5.43,5.43,14.45h-.03s.03.08.03.08l3.25-1.22-27.13-72.28-3.25,1.22ZM-757.83,620.27l-14.44,5.42-1.82-4.85,14.44-5.42,1.82,4.85ZM-760.87,612.17l-14.44,5.42-2.47-6.58,13.56-7.78,3.35,8.93ZM-765.46,599.94l-13.56,7.78-2.34-6.24,14.44-5.42,1.46,3.89ZM-768.14,592.81l-14.44,5.42-1.31-3.5,14.44-5.42,1.31,3.5ZM-770.67,586.05l-14.44,5.42-2.15-5.74,15.59-2.38,1.01,2.69Z"/>
  <path class="st9" d="M-577.34,572.35v13.59l-13.72-2.89v-10.7h-3.09v68.66h3.09v-13.75h.02v-.05h13.73v13.73h-.03v.07h3.09v-68.66h-3.09ZM-577.34,624.16h-13.72v-4.61h13.72v4.61ZM-577.34,616.46h-13.72v-6.25l13.72-2.24v8.48ZM-577.34,604.85l-13.72,2.24v-5.93h13.72v3.69ZM-577.34,598.07h-13.72v-3.33h13.72v3.33ZM-577.34,591.65h-13.72v-5.45l13.72,2.89v2.56Z"/>
  <path class="st9" d="M-533.78,572.35v13.59l-13.72-2.89v-10.7h-3.09v68.66h3.09v-13.75h.02v-.05h13.73v13.73h-.03v.07h3.09v-68.66h-3.09ZM-533.78,624.16h-13.72v-4.61h13.72v4.61ZM-533.78,616.46h-13.72v-6.25l13.72-2.24v8.48ZM-533.78,604.85l-13.72,2.24v-5.93h13.72v3.69ZM-533.78,598.07h-13.72v-3.33h13.72v3.33ZM-533.78,591.65h-13.72v-5.45l13.72,2.89v2.56Z"/>
  <path class="st9" d="M-568.08,570.07l4.78,12.72-13.86,2.12-3.76-10.02-2.89,1.09,24.13,64.28,2.89-1.09-4.83-12.87h.02s-.02-.05-.02-.05l12.85-4.83,4.83,12.85h-.03s.02.07.02.07l2.89-1.09-24.13-64.28-2.89,1.09ZM-549.87,618.58l-12.85,4.82-1.62-4.31,12.85-4.82,1.62,4.31ZM-552.58,611.37l-12.85,4.82-2.2-5.85,12.06-6.92,2.98,7.94ZM-556.66,600.5l-12.06,6.92-2.08-5.55,12.85-4.82,1.3,3.46ZM-559.04,594.15l-12.85,4.82-1.17-3.12,12.85-4.82,1.17,3.12ZM-561.3,588.14l-12.85,4.82-1.92-5.1,13.86-2.12.9,2.4Z"/>
  <polygon class="st10" points="-363.45 602.32 -369.1 604.97 -376.52 589.08 -376.52 642.3 -382.76 642.3 -382.76 589.17 -390.09 604.89 -395.76 602.25 -382.85 574.58 -382.76 574.61 -382.76 574.59 -376.52 574.59 -376.52 574.73 -376.35 574.65 -363.45 602.32"/>
  <text class="st1" transform="translate(-805.95 819.11)"><tspan x="0" y="0">Rouge</tspan></text>
  <text class="st4" transform="translate(-810.83 709.85)"><tspan x="0" y="0">Le dé couleur</tspan></text>
  <text class="st6" transform="translate(-810.82 800.04) scale(.94 1)"><tspan x="0" y="0">R</tspan></text>
  <text class="st6" transform="translate(-642.26 800.04) scale(.94 1)"><tspan x="0" y="0">V</tspan></text>
  <text class="st6" transform="translate(-727.55 800.04) scale(.94 1)"><tspan x="0" y="0">N</tspan></text>
  <text class="st6" transform="translate(-475.61 800.04) scale(.94 1)"><tspan x="0" y="0">J</tspan></text>
  <text class="st5" transform="translate(-411.46 794.7)"><tspan x="0" y="0">Relance</tspan></text>
  <text class="st6" transform="translate(-562.92 800.04) scale(.94 1)"><tspan x="0" y="0">G</tspan></text>
  <text class="st1" transform="translate(-716.46 819.11)"><tspan x="0" y="0">Noir</tspan></text>
  <text class="st1" transform="translate(-633.89 819.11)"><tspan x="0" y="0">Vert</tspan></text>
  <text class="st1" transform="translate(-550.65 819.11)"><tspan x="0" y="0">Gris</tspan></text>
  <text class="st1" transform="translate(-474.02 819.11)"><tspan x="0" y="0">Jaune</tspan></text>
  <text class="st1" transform="translate(-371.16 819.11)"><tspan x="0" y="0">Relancer le dé</tspan></text>
  <rect class="st11" x="-847.59" y="-28.74" width="595.44" height="419.76"/>
  <text class="st0" transform="translate(349.31 36.6) rotate(90)"><tspan x="0" y="0">Les six chapeaux de Bono font partie des méthodes répandues de </tspan><tspan x="0" y="11.81">résolution de problème, et parfois de créativité. Cette méthode est </tspan><tspan x="0" y="23.63">extraite de l’ouvrage « Six chapeaux pour penser ». C’est une </tspan><tspan x="0" y="35.44">méthode de management personnel ou de groupe, développée par </tspan><tspan x="0" y="47.26">Edward de Bono, permettant de traiter les problèmes dont une des </tspan><tspan x="0" y="59.07">conséquences est d’éviter la censure des idées nouvelles, </tspan><tspan x="0" y="70.89">dérangeantes, inhabituelles.</tspan></text>
  <text class="st1" transform="translate(181.21 81.17) rotate(90)"><tspan x="0" y="0">NEUTRALITÉ</tspan><tspan x="-28.38" y="11.14">Faits. chiffres. informations </tspan><tspan x="-25.29" y="22.29">dénuées d&apos;interprétations</tspan></text>
  <text class="st1" transform="translate(181.21 275.71) rotate(90)"><tspan x="0" y="0">ÉMOTIONS</tspan><tspan x="-21.33" y="11.14">Intuitions. sentiments.</tspan><tspan x="-35.26" y="22.29">impressions. pressentiments</tspan></text>
  <text class="st1" transform="translate(181.21 454.69) rotate(90)"><tspan x="0" y="0">CRÉATIVITÉ</tspan><tspan x="-47.56" y="11.14">Fertilité des idées, aucune censure.</tspan><tspan x="-32.68" y="22.29">idées farfelues, provocantes</tspan></text>
  <text class="st1" transform="translate(69.78 445.92) rotate(90)"><tspan x="0" y="0">ORGANISATION</tspan><tspan x="-30.53" y="11.14">Canalisation des idées, rigueur.</tspan><tspan x="-22.1" y="22.29">discipline, solution à retenir</tspan></text>
  <text class="st1" transform="translate(69.78 274.34) rotate(90)"><tspan x="0" y="0">OPTIMISME</tspan><tspan x="-38.52" y="11.14">Critique positive, rêves, espoir, </tspan><tspan x="-29.58" y="22.29">commentaires constructifs</tspan></text>
  <text class="st1" transform="translate(69.78 80.63) rotate(90)"><tspan x="0" y="0">PESSIMISME</tspan><tspan x="-30.1" y="11.14">Prudence, dangers. risques.</tspan><tspan x="-24.51" y="22.29">objections. inconvénients</tspan></text>
  <g>
    <rect class="st14" x="209.85" y="184.46" width="347.45" height="40.41" rx="14.1" ry="14.1" transform="translate(178.91 588.25) rotate(-90)"/>
    <text class="st3" transform="translate(377.82 49.53) rotate(90)"><tspan x="0" y="0">Les Chapeau de bono c’est quoi ?</tspan></text>
  </g>
  <g>
    <rect class="st12" x="208.01" y="92.5" width="32.7" height="32.7" rx="3.03" ry="3.03" transform="translate(333.21 -115.51) rotate(90)"/>
    <rect class="st12" x="176.67" y="101.09" width="56.54" height="15.52" rx="3.13" ry="3.13" transform="translate(313.79 -96.1) rotate(90)"/>
    <rect class="st7" x="212.72" y="92.47" width="4.7" height="32.7"/>
  </g>
  <g>
    <rect class="st16" x="208.01" y="283.53" width="32.7" height="32.7" rx="3.03" ry="3.03" transform="translate(524.24 75.52) rotate(90)"/>
    <rect class="st16" x="176.67" y="292.12" width="56.54" height="15.52" rx="3.13" ry="3.13" transform="translate(504.82 94.93) rotate(90)"/>
    <rect class="st7" x="212.72" y="283.5" width="4.7" height="32.7"/>
  </g>
  <g>
    <rect class="st17" x="208.01" y="464.13" width="32.7" height="32.7" rx="3.03" ry="3.03" transform="translate(704.84 256.12) rotate(90)"/>
    <rect class="st17" x="176.67" y="472.72" width="56.54" height="15.52" rx="3.13" ry="3.13" transform="translate(685.42 275.53) rotate(90)"/>
    <rect class="st7" x="212.72" y="464.1" width="4.7" height="32.7"/>
  </g>
  <g>
    <rect class="st2" x="95.56" y="92.48" width="32.7" height="32.7" rx="3.03" ry="3.03" transform="translate(220.74 -3.08) rotate(90)"/>
    <rect class="st2" x="64.23" y="101.07" width="56.54" height="15.52" rx="3.13" ry="3.13" transform="translate(201.33 16.33) rotate(90)"/>
    <rect class="st7" x="100.28" y="92.45" width="4.7" height="32.7"/>
  </g>
  <g>
    <rect class="st15" x="95.56" y="283.53" width="32.7" height="32.7" rx="3.03" ry="3.03" transform="translate(411.79 187.97) rotate(90)"/>
    <rect class="st15" x="64.23" y="292.12" width="56.54" height="15.52" rx="3.13" ry="3.13" transform="translate(392.38 207.38) rotate(90)"/>
    <rect class="st7" x="100.28" y="283.5" width="4.7" height="32.7"/>
  </g>
  <g>
    <rect class="st13" x="95.56" y="464.13" width="32.7" height="32.7" rx="3.03" ry="3.03" transform="translate(592.39 368.56) rotate(90)"/>
    <rect class="st13" x="64.23" y="472.72" width="56.54" height="15.52" rx="3.13" ry="3.13" transform="translate(572.98 387.98) rotate(90)"/>
    <rect class="st7" x="100.28" y="464.1" width="4.7" height="32.7"/>
  </g>
  <rect class="st11" x="-85.6" y="87.5" width="595.44" height="419.76" transform="translate(509.5 85.27) rotate(90)"/>
  <rect class="st11" x="-845.45" y="452.04" width="595.44" height="419.76" transform="translate(-1095.46 1323.85) rotate(180)"/>
  <g>
    <rect class="st14" x="743.96" y="63.19" width="109.44" height="40.41" rx="14.1" ry="14.1" transform="translate(715.28 882.08) rotate(-90)"/>
    <text class="st3" transform="translate(792.91 47.27) rotate(90)"><tspan x="0" y="0">Matériel</tspan></text>
  </g>
  <text class="st1" transform="translate(635.48 23.45) rotate(90)"><tspan x="0" y="0">L’echelle posée ne doit </tspan><tspan x="-6.45" y="11.14">toucher qu’un seul echelle </tspan></text>
  <text class="st1" transform="translate(635.48 225.29) rotate(90)"><tspan x="0" y="0">L’echelle posée doit toucher </tspan><tspan x="-4.04" y="11.14">au moins deux autres echelles</tspan></text>
  <text class="st1" transform="translate(635.48 407.64) rotate(90)"><tspan x="0" y="0">L’echelle posée être la plus </tspan><tspan x="44.97" y="11.14">haute</tspan></text>
  <text class="st4" transform="translate(742.28 34.17) rotate(90)"><tspan x="0" y="0">Le dé echelle</tspan></text>
  <path class="st8" d="M725.22,56.28h-15.28l3.25-15.43h12.03v-3.47h-77.2v3.47h15.46v.02h.05v15.44h-15.44v-.03h-.07v3.48h77.2v-3.48ZM666.96,56.28v-15.43h5.18v15.43h-5.18ZM675.61,56.28v-15.43h7.02l2.52,15.43h-9.54ZM688.67,56.28l-2.52-15.43h6.67v15.43h-4.15ZM696.29,56.28v-15.43h3.74v15.43h-3.74ZM703.51,56.28v-15.43h6.13l-3.25,15.43h-2.88Z"/>
  <path class="st8" d="M727.78,66.69l-14.31,5.37-2.38-15.59,11.26-4.23-1.22-3.25-72.28,27.13,1.22,3.25,14.47-5.43v.02s.06-.02.06-.02l5.43,14.45-14.45,5.43v-.03s-.08.03-.08.03l1.22,3.25,72.28-27.13-1.22-3.25ZM673.23,87.17l-5.42-14.44,4.85-1.82,5.42,14.44-4.85,1.82ZM681.34,84.13l-5.42-14.44,6.58-2.47,7.78,13.56-8.93,3.35ZM693.56,79.54l-7.78-13.56,6.24-2.34,5.42,14.44-3.89,1.46ZM700.7,76.86l-5.42-14.44,3.5-1.31,5.42,14.44-3.5,1.31ZM707.46,74.32l-5.42-14.44,5.74-2.15,2.38,15.59-2.69,1.01Z"/>
  <path class="st9" d="M721.16,267.65h-13.59l2.89-13.72h10.7v-3.09h-68.66v3.09h13.75v.02h.05v13.73h-13.73v-.03h-.07v3.09h68.66v-3.09ZM669.34,267.65v-13.72h4.61v13.72h-4.61ZM677.04,267.65v-13.72h6.25l2.24,13.72h-8.48ZM688.65,267.65l-2.24-13.72h5.93v13.72h-3.69ZM695.43,267.65v-13.72h3.33v13.72h-3.33ZM701.85,267.65v-13.72h5.45l-2.89,13.72h-2.56Z"/>
  <path class="st9" d="M721.16,311.21h-13.59l2.89-13.72h10.7v-3.09h-68.66v3.09h13.75v.02h.05v13.73h-13.73v-.03h-.07v3.09h68.66v-3.09ZM669.34,311.21v-13.72h4.61v13.72h-4.61ZM677.04,311.21v-13.72h6.25l2.24,13.72h-8.48ZM688.65,311.21l-2.24-13.72h5.93v13.72h-3.69ZM695.43,311.21v-13.72h3.33v13.72h-3.33ZM701.85,311.21v-13.72h5.45l-2.89,13.72h-2.56Z"/>
  <path class="st9" d="M723.44,276.91l-12.72,4.78-2.12-13.86,10.02-3.76-1.09-2.89-64.28,24.13,1.09,2.89,12.87-4.83v.02s.05-.02.05-.02l4.83,12.85-12.85,4.83v-.03s-.07.02-.07.02l1.09,2.89,64.28-24.13-1.09-2.89ZM674.92,295.12l-4.82-12.85,4.31-1.62,4.82,12.85-4.31,1.62ZM682.13,292.42l-4.82-12.85,5.85-2.2,6.92,12.06-7.94,2.98ZM693,288.34l-6.92-12.06,5.55-2.08,4.82,12.85-3.46,1.3ZM699.35,285.95l-4.82-12.85,3.12-1.17,4.82,12.85-3.12,1.17ZM705.36,283.7l-4.82-12.85,5.1-1.92,2.12,13.86-2.4.9Z"/>
  <polygon class="st10" points="691.18 481.54 688.53 475.89 704.43 468.48 651.2 468.48 651.2 462.24 704.34 462.24 688.61 454.91 691.26 449.24 718.93 462.15 718.89 462.24 718.92 462.24 718.92 468.48 718.77 468.48 718.85 468.65 691.18 481.54"/>
  <text class="st1" transform="translate(474.39 39.05) rotate(90)"><tspan x="0" y="0">Rouge</tspan></text>
  <text class="st4" transform="translate(583.65 34.17) rotate(90)"><tspan x="0" y="0">Le dé couleur</tspan></text>
  <text class="st6" transform="translate(493.46 34.17) rotate(90) scale(.94 1)"><tspan x="0" y="0">R</tspan></text>
  <text class="st6" transform="translate(493.46 202.73) rotate(90) scale(.94 1)"><tspan x="0" y="0">V</tspan></text>
  <text class="st6" transform="translate(493.46 117.44) rotate(90) scale(.94 1)"><tspan x="0" y="0">N</tspan></text>
  <text class="st6" transform="translate(493.46 369.38) rotate(90) scale(.94 1)"><tspan x="0" y="0">J</tspan></text>
  <text class="st5" transform="translate(498.8 433.54) rotate(90)"><tspan x="0" y="0">Relance</tspan></text>
  <text class="st6" transform="translate(493.46 282.08) rotate(90) scale(.94 1)"><tspan x="0" y="0">G</tspan></text>
  <text class="st1" transform="translate(474.39 128.53) rotate(90)"><tspan x="0" y="0">Noir</tspan></text>
  <text class="st1" transform="translate(474.39 211.11) rotate(90)"><tspan x="0" y="0">Vert</tspan></text>
  <text class="st1" transform="translate(474.39 294.35) rotate(90)"><tspan x="0" y="0">Gris</tspan></text>
  <text class="st1" transform="translate(474.39 370.97) rotate(90)"><tspan x="0" y="0">Jaune</tspan></text>
  <text class="st1" transform="translate(474.39 473.83) rotate(90)"><tspan x="0" y="0">Relancer le dé</tspan></text>
  <rect class="st11" x="333.86" y="87.39" width="595.44" height="419.76" transform="translate(334.31 928.85) rotate(-90)"/>
</svg>